<?xml version="1.0" encoding="UTF-8"?>
<svg id="Layer_2" data-name="Layer 2" xmlns="http://www.w3.org/2000/svg" viewBox="0 0 278.53 79.5">
  <defs>
    <style>
      .cls-1 {
        fill: #32b56a;
      }

      .cls-2 {
        fill: #00c069;
      }

      .cls-3 {
        fill: #036884;
      }
    </style>
  </defs>
  <g id="Layer_1-2" data-name="Layer 1">
    <g>
      <path class="cls-3" d="m100.49,29.84c-.13.21-.27.36-.42.45-.15.09-.33.13-.56.13-.24,0-.5-.07-.77-.2-.27-.13-.59-.28-.95-.45-.36-.17-.77-.32-1.23-.45-.46-.13-1-.2-1.63-.2-.97,0-1.74.21-2.3.62s-.84.95-.84,1.62c0,.44.14.81.43,1.11.29.3.67.56,1.14.79.47.23,1.01.43,1.61.61.6.18,1.21.38,1.84.59.63.21,1.24.46,1.84.73.6.27,1.14.62,1.61,1.04s.85.92,1.14,1.51c.29.59.43,1.29.43,2.12,0,.99-.18,1.9-.54,2.73-.36.83-.89,1.55-1.58,2.16-.69.61-1.55,1.08-2.57,1.42-1.02.34-2.19.51-3.51.51-.71,0-1.4-.06-2.07-.19-.67-.13-1.32-.3-1.94-.53s-1.19-.49-1.72-.8c-.53-.31-.99-.64-1.39-1l1.14-1.88c.15-.23.32-.4.52-.52s.45-.18.76-.18.6.09.87.26c.27.17.59.36.95.56s.78.39,1.27.56c.49.17,1.1.26,1.85.26.59,0,1.09-.07,1.51-.21.42-.14.77-.32,1.04-.55s.47-.49.6-.79.19-.61.19-.93c0-.48-.14-.87-.43-1.18-.29-.31-.67-.57-1.14-.8-.47-.23-1.01-.43-1.62-.61-.61-.18-1.23-.38-1.86-.59-.63-.21-1.25-.46-1.86-.75-.61-.29-1.15-.65-1.62-1.09-.47-.44-.85-.98-1.14-1.62-.29-.64-.43-1.41-.43-2.32,0-.84.17-1.64.5-2.4.33-.76.82-1.42,1.47-1.99.65-.57,1.45-1.02,2.42-1.36s2.08-.51,3.35-.51c1.41,0,2.7.23,3.86.7,1.16.47,2.13,1.08,2.9,1.84l-1.12,1.78Z"/>
      <path class="cls-3" d="m105.79,53.06v-27.22h3.02c.32,0,.59.07.82.22.23.15.37.37.44.68l.4,1.9c.83-.95,1.78-1.71,2.85-2.3,1.07-.59,2.33-.88,3.77-.88,1.12,0,2.14.23,3.07.7s1.73,1.14,2.4,2.03c.67.89,1.19,1.98,1.56,3.28.37,1.3.55,2.79.55,4.47,0,1.53-.21,2.95-.62,4.26-.41,1.31-1,2.44-1.77,3.4-.77.96-1.69,1.71-2.78,2.25-1.09.54-2.3.81-3.65.81-1.16,0-2.14-.18-2.95-.53-.81-.35-1.53-.84-2.17-1.47v8.4h-4.94Zm9.6-23.7c-1.03,0-1.9.22-2.63.65-.73.43-1.4,1.04-2.03,1.83v9.2c.56.69,1.17,1.18,1.83,1.45s1.37.41,2.13.41,1.42-.14,2.03-.42c.61-.28,1.12-.71,1.54-1.28s.74-1.3.97-2.17.34-1.9.34-3.09-.1-2.22-.29-3.05c-.19-.83-.47-1.51-.83-2.03-.36-.52-.8-.9-1.31-1.14-.51-.24-1.1-.36-1.75-.36Z"/>
      <path class="cls-3" d="m136.89,25.52c1.29,0,2.48.21,3.57.62,1.09.41,2.02,1.02,2.81,1.81.79.79,1.4,1.77,1.84,2.92.44,1.15.66,2.47.66,3.95,0,.37-.02.68-.05.93-.03.25-.09.44-.18.58-.09.14-.2.24-.35.3-.15.06-.33.09-.56.09h-12.68c.15,2.11.71,3.65,1.7,4.64s2.29,1.48,3.92,1.48c.8,0,1.49-.09,2.07-.28s1.09-.39,1.52-.62c.43-.23.81-.43,1.14-.62.33-.19.64-.28.95-.28.2,0,.37.04.52.12s.27.19.38.34l1.44,1.8c-.55.64-1.16,1.18-1.84,1.61-.68.43-1.39.78-2.13,1.04-.74.26-1.49.44-2.26.55s-1.51.16-2.23.16c-1.43,0-2.75-.24-3.98-.71-1.23-.47-2.29-1.17-3.2-2.1-.91-.93-1.62-2.07-2.14-3.44-.52-1.37-.78-2.95-.78-4.75,0-1.4.23-2.72.68-3.95.45-1.23,1.1-2.31,1.95-3.22s1.88-1.64,3.1-2.17c1.22-.53,2.6-.8,4.13-.8Zm.1,3.54c-1.44,0-2.57.41-3.38,1.22s-1.33,1.97-1.56,3.46h9.28c0-.64-.09-1.24-.26-1.81-.17-.57-.44-1.06-.8-1.49s-.81-.76-1.36-1.01c-.55-.25-1.19-.37-1.92-.37Z"/>
      <path class="cls-3" d="m164.21,30.18c-.15.19-.29.33-.43.44s-.34.16-.61.16-.5-.08-.74-.23c-.24-.15-.53-.33-.86-.52s-.73-.37-1.19-.52c-.46-.15-1.03-.23-1.71-.23-.87,0-1.63.16-2.28.47s-1.2.76-1.63,1.35c-.43.59-.76,1.3-.97,2.13-.21.83-.32,1.78-.32,2.83s.12,2.07.35,2.92.57,1.57,1.01,2.15c.44.58.97,1.02,1.6,1.32.63.3,1.33.45,2.12.45s1.42-.1,1.91-.29c.49-.19.9-.41,1.23-.64.33-.23.62-.45.87-.64.25-.19.52-.29.83-.29.4,0,.7.15.9.46l1.42,1.8c-.55.64-1.14,1.18-1.78,1.61-.64.43-1.3.78-1.99,1.04s-1.4.44-2.13.55-1.46.16-2.18.16c-1.27,0-2.46-.24-3.58-.71-1.12-.47-2.1-1.16-2.93-2.07-.83-.91-1.49-2.02-1.98-3.33-.49-1.31-.73-2.81-.73-4.49,0-1.51.22-2.9.65-4.19.43-1.29,1.07-2.4,1.91-3.34.84-.94,1.88-1.68,3.12-2.21,1.24-.53,2.67-.8,4.28-.8s2.88.25,4.03.74c1.15.49,2.19,1.2,3.11,2.12l-1.3,1.8Z"/>
      <path class="cls-3" d="m174.87,19.86c0,.43-.09.83-.26,1.2-.17.37-.4.7-.69.98-.29.28-.62.5-1.01.67-.39.17-.8.25-1.24.25s-.83-.08-1.21-.25c-.38-.17-.71-.39-.99-.67-.28-.28-.5-.61-.67-.98-.17-.37-.25-.77-.25-1.2s.08-.85.25-1.24c.17-.39.39-.72.67-1,.28-.28.61-.5.99-.67.38-.17.78-.25,1.21-.25s.85.08,1.24.25.72.39,1.01.67c.29.28.52.61.69,1s.26.8.26,1.24Zm-.74,5.98v20.52h-4.94v-20.52h4.94Z"/>
      <path class="cls-3" d="m188.19,25.52c1.29,0,2.48.21,3.57.62,1.09.41,2.02,1.02,2.81,1.81.79.79,1.4,1.77,1.84,2.92.44,1.15.66,2.47.66,3.95,0,.37-.02.68-.05.93-.03.25-.09.44-.18.58-.09.14-.2.24-.35.3-.15.06-.33.09-.56.09h-12.68c.15,2.11.71,3.65,1.7,4.64s2.29,1.48,3.92,1.48c.8,0,1.49-.09,2.07-.28s1.09-.39,1.52-.62c.43-.23.81-.43,1.14-.62.33-.19.64-.28.95-.28.2,0,.37.04.52.12s.27.19.38.34l1.44,1.8c-.55.64-1.16,1.18-1.84,1.61-.68.43-1.39.78-2.13,1.04-.74.26-1.49.44-2.26.55s-1.51.16-2.23.16c-1.43,0-2.75-.24-3.98-.71-1.23-.47-2.29-1.17-3.2-2.1-.91-.93-1.62-2.07-2.14-3.44-.52-1.37-.78-2.95-.78-4.75,0-1.4.23-2.72.68-3.95.45-1.23,1.1-2.31,1.95-3.22s1.88-1.64,3.1-2.17c1.22-.53,2.6-.8,4.13-.8Zm.1,3.54c-1.44,0-2.57.41-3.38,1.22s-1.33,1.97-1.56,3.46h9.28c0-.64-.09-1.24-.26-1.81-.17-.57-.44-1.06-.8-1.49s-.81-.76-1.36-1.01c-.55-.25-1.19-.37-1.92-.37Z"/>
      <path class="cls-3" d="m213.27,29.84c-.13.21-.27.36-.42.45-.15.09-.33.13-.56.13-.24,0-.5-.07-.77-.2-.27-.13-.59-.28-.95-.45-.36-.17-.77-.32-1.23-.45-.46-.13-1-.2-1.63-.2-.97,0-1.74.21-2.3.62s-.84.95-.84,1.62c0,.44.14.81.43,1.11.29.3.67.56,1.14.79.47.23,1.01.43,1.61.61.6.18,1.21.38,1.84.59.63.21,1.24.46,1.84.73.6.27,1.14.62,1.61,1.04s.85.92,1.14,1.51c.29.59.43,1.29.43,2.12,0,.99-.18,1.9-.54,2.73-.36.83-.89,1.55-1.58,2.16-.69.61-1.55,1.08-2.57,1.42-1.02.34-2.19.51-3.51.51-.71,0-1.4-.06-2.07-.19-.67-.13-1.32-.3-1.94-.53s-1.19-.49-1.72-.8c-.53-.31-.99-.64-1.39-1l1.14-1.88c.15-.23.32-.4.52-.52s.45-.18.76-.18.6.09.87.26c.27.17.59.36.95.56s.78.39,1.27.56c.49.17,1.1.26,1.85.26.59,0,1.09-.07,1.51-.21.42-.14.77-.32,1.04-.55s.47-.49.6-.79.19-.61.19-.93c0-.48-.14-.87-.43-1.18-.29-.31-.67-.57-1.14-.8-.47-.23-1.01-.43-1.62-.61-.61-.18-1.23-.38-1.86-.59-.63-.21-1.25-.46-1.86-.75-.61-.29-1.15-.65-1.62-1.09-.47-.44-.85-.98-1.14-1.62-.29-.64-.43-1.41-.43-2.32,0-.84.17-1.64.5-2.4.33-.76.82-1.42,1.47-1.99.65-.57,1.45-1.02,2.42-1.36s2.08-.51,3.35-.51c1.41,0,2.7.23,3.86.7,1.16.47,2.13,1.08,2.9,1.84l-1.12,1.78Z"/>
      <path class="cls-3" d="m227.17,46.36v-16.8l-1.78-.28c-.39-.07-.7-.2-.93-.4s-.35-.48-.35-.84v-2.02h3.06v-.66c0-1.25.21-2.42.62-3.49s1.04-2,1.88-2.79c.84-.79,1.9-1.4,3.18-1.85,1.28-.45,2.79-.67,4.54-.67.56,0,1.13.03,1.72.09.59.06,1.09.16,1.52.29l-.16,2.56c-.03.31-.19.49-.5.55-.31.06-.69.09-1.14.09-1.29,0-2.38.11-3.25.34s-1.58.56-2.12,1.01-.93,1.01-1.16,1.68c-.23.67-.35,1.46-.35,2.35v.5h12.72v20.34h-4.94v-16.82h-7.62v16.82h-4.94Z"/>
      <path class="cls-3" d="m255.59,16.64v29.72h-4.94v-29.72h4.94Z"/>
      <path class="cls-3" d="m269.65,25.52c1.29,0,2.48.21,3.57.62,1.09.41,2.02,1.02,2.81,1.81.79.79,1.4,1.77,1.84,2.92.44,1.15.66,2.47.66,3.95,0,.37-.02.68-.05.93-.03.25-.09.44-.18.58-.09.14-.2.24-.35.3-.15.06-.33.09-.56.09h-12.68c.15,2.11.71,3.65,1.7,4.64s2.29,1.48,3.92,1.48c.8,0,1.49-.09,2.07-.28s1.09-.39,1.52-.62c.43-.23.81-.43,1.14-.62.33-.19.64-.28.95-.28.2,0,.37.04.52.12s.27.19.38.34l1.44,1.8c-.55.64-1.16,1.18-1.84,1.61-.68.43-1.39.78-2.13,1.04-.74.26-1.49.44-2.26.55s-1.51.16-2.23.16c-1.43,0-2.75-.24-3.98-.71-1.23-.47-2.29-1.17-3.2-2.1-.91-.93-1.62-2.07-2.14-3.44-.52-1.37-.78-2.95-.78-4.75,0-1.4.23-2.72.68-3.95.45-1.23,1.1-2.31,1.95-3.22s1.88-1.64,3.1-2.17c1.22-.53,2.6-.8,4.13-.8Zm.1,3.54c-1.44,0-2.57.41-3.38,1.22s-1.33,1.97-1.56,3.46h9.28c0-.64-.09-1.24-.26-1.81-.17-.57-.44-1.06-.8-1.49s-.81-.76-1.36-1.01c-.55-.25-1.19-.37-1.92-.37Z"/>
    </g>
    <g>
      <path class="cls-3" d="m95.43,70.13c.46,0,.89-.02,1.28-.07.39-.04.75-.11,1.1-.2.34-.09.67-.19.97-.32.3-.12.61-.27.91-.43v-3.79h-2.66c-.15,0-.27-.04-.37-.13-.09-.09-.14-.2-.14-.32v-1.32h5.28v6.6c-.43.31-.88.58-1.35.82-.47.23-.97.43-1.5.58-.53.16-1.1.27-1.71.35-.61.08-1.27.11-1.98.11-1.25,0-2.39-.21-3.43-.64-1.04-.43-1.94-1.03-2.69-1.8-.75-.77-1.34-1.7-1.76-2.78-.42-1.08-.63-2.27-.63-3.56s.21-2.51.62-3.59,1-2.01,1.76-2.78c.76-.77,1.69-1.37,2.77-1.79,1.08-.42,2.3-.64,3.64-.64.68,0,1.31.05,1.9.15.58.1,1.12.24,1.63.43.5.19.96.42,1.39.68.42.27.82.57,1.19.91l-.66,1.06c-.14.22-.31.32-.53.32-.13,0-.27-.04-.42-.13-.2-.11-.42-.25-.67-.41-.25-.16-.55-.31-.91-.46-.36-.15-.78-.27-1.26-.38-.48-.1-1.06-.16-1.72-.16-.97,0-1.84.16-2.63.47-.78.32-1.45.77-2,1.36s-.98,1.3-1.27,2.14c-.3.84-.44,1.77-.44,2.81s.15,2.06.46,2.91c.31.85.74,1.57,1.3,2.17.56.59,1.22,1.04,1.99,1.36.77.31,1.62.47,2.54.47Z"/>
      <path class="cls-3" d="m109.13,64.65v7.18h-2.32v-17.2h4.86c1.09,0,2.03.11,2.82.33.79.22,1.45.54,1.96.95.52.42.9.92,1.15,1.51.25.59.37,1.25.37,1.97,0,.61-.1,1.18-.29,1.7-.19.53-.47,1-.83,1.42-.36.42-.81.78-1.33,1.07-.52.3-1.12.52-1.78.67.29.17.54.41.77.73l5.02,6.83h-2.06c-.42,0-.74-.16-.94-.49l-4.46-6.14c-.14-.19-.28-.33-.44-.41s-.4-.13-.72-.13h-1.76Zm0-1.69h2.44c.68,0,1.28-.08,1.79-.25s.95-.4,1.3-.7.61-.66.79-1.07.26-.88.26-1.38c0-1.02-.34-1.8-1.01-2.32-.68-.52-1.68-.78-3.02-.78h-2.54v6.49Z"/>
      <path class="cls-3" d="m138.65,63.23c0,1.29-.2,2.47-.61,3.55s-.98,2-1.73,2.78-1.64,1.38-2.68,1.81-2.2.64-3.46.64-2.42-.21-3.46-.64-1.93-1.03-2.68-1.81-1.32-1.7-1.73-2.78-.61-2.26-.61-3.55.2-2.47.61-3.55.98-2,1.73-2.78,1.64-1.39,2.68-1.82c1.04-.43,2.19-.65,3.46-.65s2.42.22,3.46.65c1.04.43,1.94,1.04,2.68,1.82s1.32,1.71,1.73,2.78.61,2.26.61,3.55Zm-2.39,0c0-1.06-.14-2-.43-2.84s-.7-1.55-1.22-2.13c-.53-.58-1.17-1.03-1.92-1.34-.75-.31-1.59-.47-2.52-.47s-1.76.16-2.51.47c-.75.31-1.39.76-1.93,1.34-.53.58-.94,1.29-1.23,2.13s-.43,1.79-.43,2.84.14,2,.43,2.84.7,1.54,1.23,2.12c.53.58,1.17,1.02,1.93,1.33.75.31,1.59.46,2.51.46s1.77-.15,2.52-.46c.75-.31,1.39-.75,1.92-1.33.53-.58.94-1.29,1.22-2.12s.43-1.78.43-2.84Z"/>
      <path class="cls-3" d="m149.72,69.98c.71,0,1.35-.12,1.91-.36.56-.24,1.03-.58,1.42-1.01.39-.43.68-.95.89-1.55s.31-1.26.31-1.98v-10.45h2.32v10.45c0,.99-.16,1.91-.47,2.76-.32.85-.77,1.58-1.36,2.2-.59.62-1.31,1.11-2.15,1.46-.85.35-1.8.53-2.86.53s-2.01-.18-2.86-.53c-.85-.35-1.57-.84-2.16-1.46-.59-.62-1.05-1.35-1.36-2.2-.32-.85-.47-1.77-.47-2.76v-10.45h2.32v10.44c0,.72.1,1.38.31,1.98.2.6.5,1.12.89,1.55.39.43.86.77,1.43,1.01.56.24,1.2.37,1.91.37Z"/>
      <path class="cls-3" d="m164.31,65.39v6.43h-2.32v-17.2h5.08c1.09,0,2.03.13,2.84.38s1.47.61,2,1.07c.53.46.92,1.02,1.18,1.68s.39,1.39.39,2.2-.14,1.53-.42,2.2c-.28.66-.69,1.24-1.23,1.72-.54.48-1.21.85-2.01,1.12-.8.27-1.72.4-2.75.4h-2.76Zm0-1.85h2.76c.66,0,1.25-.09,1.76-.26s.93-.42,1.28-.74c.34-.32.6-.69.78-1.13.18-.44.26-.92.26-1.45,0-1.1-.34-1.95-1.01-2.57s-1.7-.92-3.07-.92h-2.76v7.08Z"/>
    </g>
    <g>
      <g>
        <path class="cls-2" d="m51.64,38.7c-1.64-5.85-5.03-10.96-9.59-14.73-.11-.09-.23-.19-.34-.28-2.78-2.23-5.96-3.97-9.43-5.07-.73-.22-1.21-.32-1.81-.52-1.25-.4-2.46-.88-3.62-1.45-.09-.04-.18-.08-.27-.12-.23-.11-.47-.23-.7-.36-.13-.07-.27-.14-.41-.22-.08-.04-.17-.09-.25-.14-.16-.09-.33-.18-.49-.28-.42-.25-.84-.51-1.25-.78-.01,0-.02-.02-.04-.02-.14-.09-.28-.18-.41-.28-.02-.01-.04-.03-.06-.04s-.04-.02-.07-.04c-.02-.01-.03-.02-.04-.03-.17-.11-.34-.23-.51-.36-.15-.11-.3-.22-.45-.33-.11-.09-.22-.17-.34-.26-.2-.16-.4-.32-.6-.48-.12-.1-.25-.2-.37-.31-.04-.03-.07-.06-.11-.09-.11-.09-.22-.19-.33-.29-.17-.15-.34-.3-.5-.45-.38-.36-.75-.72-1.11-1.1-.1-.1-.19-.2-.29-.3-.2-.22-.4-.44-.6-.66-.11-.13-.23-.26-.34-.4-.07-.09-.15-.18-.22-.27-.13-.15-.25-.3-.37-.46-.12-.15-.24-.3-.36-.46-.29-.38-.57-.77-.85-1.17-.03-.04-.06-.09-.09-.13-.21-.31-.41-.62-.6-.94-.02-.03-.04-.06-.06-.09-.12-.2-.25-.4-.36-.61-.11-.18-.21-.37-.32-.55-.24-.44-.47-.88-.69-1.34-.09-.18-.17-.36-.25-.54-.11-.23-.21-.46-.31-.69-.1-.23-.2-.47-.29-.7-.09-.22-.18-.44-.26-.67-.09-.22-.17-.45-.25-.67,0,0,0,.01,0,.02.66,13.46,4.87,25.99,11.72,36.67,1.58-4.49,2.74-9.17,3.44-14,.51,3.53.78,7.15.78,10.83,0,2.87-.17,5.69-.49,8.47,2.88,3.74,6.11,7.2,9.64,10.33,2.48-6.22,4.16-12.84,4.89-19.75.09.89.17,1.78.23,2.67l.12,2.15c.05,1.06.07,2.13.07,3.21,0,5.1-.52,10.08-1.49,14.89,2.56,1.99,5.24,3.82,8.04,5.46,1.36-2.43,2.39-5.08,3.01-7.88.05-.2.09-.4.13-.6.03-.16.07-.31.09-.47.02-.11.04-.22.06-.34.02-.11.04-.23.06-.35.02-.15.05-.3.07-.45.05-.34.1-.68.13-1.02.03-.27.05-.55.08-.82.02-.25.04-.5.05-.75.02-.27.02-.53.03-.8,0-.27.01-.54.01-.8v-.04c0-2.76-.38-5.42-1.09-7.95Z"/>
        <g>
          <path class="cls-1" d="m4.47,44.62c0,1.06.86,1.93,1.93,1.93s1.93-.86,1.93-1.93-.86-1.93-1.93-1.93-1.93.86-1.93,1.93Z"/>
          <path class="cls-1" d="m6.29,32.1c0,1.06.86,1.93,1.93,1.93s1.93-.86,1.93-1.93-.86-1.93-1.93-1.93-1.93.86-1.93,1.93Z"/>
          <path class="cls-2" d="m21.79,60.15l-7.22-2.03c-.62,1-1.73,1.67-3,1.67-1.96,0-3.54-1.58-3.54-3.54s1.58-3.54,3.54-3.54c1.78,0,3.25,1.32,3.5,3.03l16.03,4.49c-3.31-2.67-7.19-5.94-10.18-8.85-.99.14-1.9.21-2.73.21-4.4,0-6.82-1.84-9.18-3.62-.19-.15-.39-.29-.59-.44-.57.4-1.27.63-2.02.63-1.96,0-3.54-1.58-3.54-3.54s1.58-3.54,3.54-3.54,3.54,1.58,3.54,3.54c0,.32-.05.63-.13.92.22.16.44.33.66.49,2.38,1.8,4.35,3.29,8.27,3.12-4.35-4.6-6.07-7.35-8.36-11.05-.45-.73-.92-1.49-1.45-2.31l-.14-.22c-.19.03-.38.05-.58.05-1.96,0-3.54-1.58-3.54-3.54s1.58-3.54,3.54-3.54,3.54,1.58,3.54,3.54c0,.88-.32,1.68-.85,2.3l.07.11c.53.83,1.01,1.6,1.46,2.34,2.5,4.02,4.15,6.68,9.21,11.86,3.08,3.15,7.67,7,11.4,10-.19-.17-.31-.3-.29-.3-.09-.08-.17-.17-.26-.25-.22-.21-.44-.43-.65-.64-.18-.17-.36-.35-.54-.53-.18-.18-.35-.36-.53-.55-.07-.07-.14-.15-.21-.22-.21-.22-.42-.44-.63-.66-.27-.29-.54-.58-.81-.87-.26-.29-.53-.58-.79-.88-.09-.1-.18-.2-.27-.31,0,0-.02-.02-.02-.02-.18-.21-.37-.42-.55-.63-.22-.26-.44-.52-.65-.78l-.5-.61c-.2-.24-.39-.49-.59-.73-.19-.24-.38-.48-.56-.72-.19-.24-.56-.73-.56-.73l-1.88-2.63s-.62-.92-.92-1.38c-.36-.55-.71-1.11-1.06-1.67-.13-.22-.27-.44-.41-.67-.28-.47-.56-.95-.84-1.43-.15-.26-.29-.52-.44-.77-.32-.57-.63-1.15-.93-1.73-.14-.27-.28-.54-.41-.81-.14-.27-.27-.54-.41-.81-.14-.27-.26-.55-.4-.83-.09-.2-.19-.41-.28-.61-.13-.27-.25-.54-.37-.81-.14-.32-.29-.64-.42-.96-.14-.32-.27-.62-.4-.94-.12-.28-.23-.56-.35-.85-.09-.23-.18-.46-.27-.7-.24-.62-.47-1.25-.7-1.87-.12-.35-.25-.71-.36-1.06h0c-.1-.31-.2-.61-.3-.91-.13-.41-.26-.81-.38-1.22-.04-.12-.07-.24-.11-.36-.08-.27-.16-.55-.24-.83-.09-.29-.17-.59-.25-.89-.04-.17-.09-.33-.14-.49-.01-.05-.02-.09-.03-.14-.04-.14-.07-.27-.11-.41-.06-.25-.13-.5-.19-.76-.01-.05-.02-.09-.03-.14-.06-.26-.12-.51-.19-.77-.07-.32-.15-.64-.22-.96-.07-.32-.14-.65-.2-.97-.15-.71-.28-1.43-.41-2.15-.02-.11-.04-.22-.06-.34-.04-.22-.07-.44-.11-.66-.04-.26-.08-.52-.12-.78-.04-.26-.08-.53-.11-.8-.05-.4-.11-.79-.16-1.19h0c-.02-.15-.03-.31-.05-.46-.03-.28-.06-.56-.09-.83-.03-.29-.06-.59-.08-.89-.02-.2-.03-.4-.05-.61-.01-.14-.02-.28-.03-.42-.02-.19-.1-2.17-.12-2.37,0,4.99-1.98,10.25-4.12,14.42C2.21,29.95-.18,37.49.01,44.17c.14,4.88,2.99,15.27,12.74,21.78,1.47-1.78,4.98-4.96,9.03-5.81Z"/>
          <circle class="cls-1" cx="11.55" cy="56.25" r="1.93"/>
        </g>
        <path class="cls-3" d="m62.27,76.12h0c-1.57,0-2.99-.86-3.79-2.2-1.03-1.71-2.41-3.19-4.04-4.34h0s-6.47-4.51-7.3-5c-.09-.05-.18-.11-.26-.16-2.99-1.82-5.83-3.83-8.52-6.03-.01-.01-.03-.03-.04-.04l-1.87-1.59c-2.63-2.3-5.09-4.8-7.36-7.46-.82-.95-1.61-1.92-2.37-2.91-.45-.58-.89-1.17-1.33-1.77l-1.83-2.65c-2.63-3.99-4.89-8.26-6.71-12.75-.91-2.23-1.72-4.52-2.4-6.86-.22-.74-.42-1.47-.62-2.22-.39-1.5-.74-3.02-1.03-4.55-.25-1.25-.46-2.51-.63-3.79-.18-1.25-.32-2.51-.44-3.78-.05-.55-.09-1.1-.13-1.66-.11-1.58-1.5-3.76-1.56-3.97,0,0,0,0,0,0,0,0,0,0,0,0-.04-.1-.06-.19-.09-.29,0,.11-.01.35-.01.35-.03.88-.05,1.77-.05,2.66,0,.36,0,.72,0,1.08,0,.36.01.72.02,1.07,0,.23.01.47.02.71,0,.2.01.39.02.59,0,.15.01.3.02.45.02.33.04.67.06,1,0,.07,0,.15.02.22.01.2.02.39.04.58.01.14.02.29.03.42.02.2.04.41.05.61.03.3.06.6.08.89.03.28.06.56.09.83.02.15.04.3.05.45h0c.05.4.1.8.16,1.19.04.26.07.53.11.8.04.26.08.51.12.77.04.23.1.6.14.83.01.06.02.12.03.18.12.72.26,1.43.41,2.15.07.32.14.65.2.97.07.32.14.64.22.96.06.26.12.51.19.77.01.05.02.09.03.14.06.26.13.51.19.76.04.14.07.27.11.41,0,.05.02.09.03.14.05.16.09.33.14.49.08.3.16.6.25.89.08.28.16.55.24.83.04.12.08.24.11.36.12.41.26.82.38,1.22.1.3.2.61.3.91h0c.12.35.24.71.36,1.06.23.62.46,1.25.7,1.87.09.23.18.46.27.7.11.28.23.56.35.85.13.32.26.62.4.94.14.32.28.64.42.96.12.28.25.55.37.81.1.2.19.41.28.61.13.28.26.55.4.83.13.27.27.54.4.81.14.27.27.54.41.81.3.59.61,1.16.93,1.73.14.26.29.52.44.77.27.48.56.96.84,1.43.14.23.27.45.41.67.35.56.71,1.12,1.06,1.67.3.46.92,1.38.92,1.38l1.88,2.63s.37.49.56.73.37.48.56.72c.19.25.39.49.59.73l.5.61c.22.26.43.52.65.78.18.21.36.42.55.63,0,0,.01.01.02.02.09.1.18.2.27.31.26.3.53.59.79.88.27.29.54.59.81.87.21.22.42.44.63.66.07.07.14.15.21.22.18.19.35.37.53.55.18.18.36.36.54.53.22.21.43.43.65.64.09.08.17.17.26.25-.07,0,1.7,1.57,1.75,1.61.32.29.65.58.98.86.32.28.65.56.99.84.14.11.28.23.42.34.15.12.29.24.45.36.28.23.57.46.85.68.16.12.32.25.47.37.32.24.63.48.95.71.16.12.33.25.49.37.29.22.59.43.89.64.21.15.43.3.65.45.04.03.08.06.12.08.23.15.45.31.67.46.08.05.15.1.23.15.04.03.09.06.14.09l-13-3.89c-5.42-1.62-11.29.16-14.88,4.54l-3.34,4.07c-1.89,2.3-2.92,4.57-5.86,5.02h-1.92c-1.04,0-1.88.85-1.87,1.88,0,.82.67,1.48,1.49,1.48h2.72c4.22-.63,6.05-4.02,8.94-7.16l3.34-3.64c2.72-2.97,6.76-3.99,10.65-2.95l9.98,3.07c-2.43,1.39-4.42,3.46-5.7,5.97-.42.82-1.26,1.33-2.18,1.33h-1.21c-.87,0-1.57.7-1.57,1.57,0,1,.81,1.81,1.81,1.81h2.54c1.4,0,2.7-.82,3.22-2.13,1.63-4.09,5.56-7.09,10.2-7.09,4.19,0,7.91,2.66,9.8,6.24.96,1.81,2.81,2.98,4.86,2.98h1.22c1,0,1.81-.81,1.81-1.81,0-.87-.7-1.57-1.57-1.57Z"/>
      </g>
      <path class="cls-3" d="m39.61,10.81c15.52,6.85,26.11,22.86,25.78,39.84.02.91-.02,1.82-.08,2.73-.24-.21-1.64-1.52-2.05-1.9-4.52-4.09-5.99-5.42-6.06-3.35-.1,5.55-1.72,10.73-4.47,15.13,3.44,2.35,5.64,4.12,8,6.64,1.82,1.95,4.93,1.98,6.73.01.02-.02.04-.04.06-.06.73-.84,1.13-1.48,1.42-2.39.35-1.09.59-2.16.76-3.17.3-1.82.33-3.43.25-4.52,2.88-7.54,3.63-15.73,2.32-23.65-.06-.6-.31-1.56-.42-2.15-.14-.61-.31-1.53-.5-2.13-.23-.74-.68-2.43-.96-3.13-.37-.94-.76-2.14-1.19-3.05-.17-.36-.99-2.14-1.14-2.47-.37-.69-.94-1.69-1.31-2.38-2.01-3.39-4.47-6.62-7.31-9.35-2.51-2.53-5.45-4.69-8.48-6.55-.91-.51-1.9-1.02-2.82-1.54-.66-.31-2.22-1-2.92-1.32.68.36,2.15,1.11,2.84,1.47.88.55,1.84,1.12,2.72,1.67.65.48,1.95,1.37,2.58,1.86,4.15,3.26,7.74,7.24,10.5,11.74.19.34,1.14,1.97,1.31,2.27.33.68.81,1.68,1.15,2.36.12.23.33.71.42.96.25.66.94,2.27,1.12,2.93.22.72.57,1.77.79,2.49.08.36.51,2.13.6,2.53,1.4,6.64,1.21,13.67-.58,20.22-.14-18.41-11.71-35.31-29.06-41.77Zm24.58,53.1c-2.05.54-3.99-1.07-3.85-3.18.09-1.28,1.01-2.39,2.25-2.72,2.05-.54,3.99,1.07,3.85,3.18-.09,1.28-1.01,2.39-2.25,2.72Z"/>
    </g>
  </g>
</svg>