<?xml version="1.0" encoding="utf-8"?>
<!-- Generator: Adobe Illustrator 27.6.1, SVG Export Plug-In . SVG Version: 6.00 Build 0)  -->
<svg version="1.1" id="Layer_2_00000005977058710401343720000001434159341034429825_"
	 xmlns="http://www.w3.org/2000/svg" xmlns:xlink="http://www.w3.org/1999/xlink" x="0px" y="0px" viewBox="0 0 281.8 79.5"
	 style="enable-background:new 0 0 281.8 79.5;" xml:space="preserve">
<style type="text/css">
	.st0{enable-background:new    ;}
	.st1{fill:#0E6FBE;}
	.st2{fill:#00DB81;}
</style>
<g>
	<g class="st0">
		<path class="st1" d="M102.4,27.8c-0.1,0.2-0.3,0.4-0.4,0.4c-0.1,0.1-0.3,0.1-0.6,0.1c-0.2,0-0.5-0.1-0.8-0.2
			c-0.3-0.1-0.6-0.3-0.9-0.5c-0.4-0.2-0.8-0.3-1.2-0.5c-0.5-0.1-1-0.2-1.6-0.2c-1,0-1.7,0.2-2.3,0.6s-0.8,1-0.8,1.6
			c0,0.4,0.1,0.8,0.4,1.1c0.3,0.3,0.7,0.6,1.1,0.8s1,0.4,1.6,0.6c0.6,0.2,1.2,0.4,1.8,0.6c0.6,0.2,1.2,0.5,1.8,0.7s1.1,0.6,1.6,1
			s0.9,0.9,1.1,1.5s0.4,1.3,0.4,2.1c0,1-0.2,1.9-0.5,2.7c-0.4,0.8-0.9,1.6-1.6,2.2c-0.7,0.6-1.5,1.1-2.6,1.4c-1,0.3-2.2,0.5-3.5,0.5
			c-0.7,0-1.4-0.1-2.1-0.2c-0.7-0.1-1.3-0.3-1.9-0.5c-0.6-0.2-1.2-0.5-1.7-0.8c-0.5-0.3-1-0.6-1.4-1l1.1-1.9
			c0.1-0.2,0.3-0.4,0.5-0.5c0.2-0.1,0.5-0.2,0.8-0.2s0.6,0.1,0.9,0.3c0.3,0.2,0.6,0.4,1,0.6s0.8,0.4,1.3,0.6
			c0.5,0.2,1.1,0.3,1.9,0.3c0.6,0,1.1-0.1,1.5-0.2c0.4-0.1,0.8-0.3,1-0.6c0.3-0.2,0.5-0.5,0.6-0.8c0.1-0.3,0.2-0.6,0.2-0.9
			c0-0.5-0.1-0.9-0.4-1.2s-0.7-0.6-1.1-0.8c-0.5-0.2-1-0.4-1.6-0.6c-0.6-0.2-1.2-0.4-1.9-0.6c-0.6-0.2-1.3-0.5-1.9-0.8
			c-0.6-0.3-1.1-0.7-1.6-1.1c-0.5-0.4-0.9-1-1.1-1.6c-0.3-0.6-0.4-1.4-0.4-2.3c0-0.8,0.2-1.6,0.5-2.4c0.3-0.8,0.8-1.4,1.5-2
			c0.6-0.6,1.5-1,2.4-1.4c1-0.3,2.1-0.5,3.4-0.5c1.4,0,2.7,0.2,3.9,0.7s2.1,1.1,2.9,1.8L102.4,27.8z"/>
		<path class="st1" d="M107.7,51V23.8h3c0.3,0,0.6,0.1,0.8,0.2c0.2,0.1,0.4,0.4,0.4,0.7l0.4,1.9c0.8-0.9,1.8-1.7,2.9-2.3
			c1.1-0.6,2.3-0.9,3.8-0.9c1.1,0,2.1,0.2,3.1,0.7s1.7,1.1,2.4,2c0.7,0.9,1.2,2,1.6,3.3c0.4,1.3,0.5,2.8,0.5,4.5
			c0,1.5-0.2,3-0.6,4.3c-0.4,1.3-1,2.4-1.8,3.4s-1.7,1.7-2.8,2.2c-1.1,0.5-2.3,0.8-3.6,0.8c-1.2,0-2.1-0.2-3-0.5
			c-0.8-0.4-1.5-0.8-2.2-1.5V51H107.7z M117.3,27.3c-1,0-1.9,0.2-2.6,0.7c-0.7,0.4-1.4,1-2,1.8V39c0.6,0.7,1.2,1.2,1.8,1.5
			c0.7,0.3,1.4,0.4,2.1,0.4c0.7,0,1.4-0.1,2-0.4s1.1-0.7,1.5-1.3s0.7-1.3,1-2.2c0.2-0.9,0.3-1.9,0.3-3.1c0-1.2-0.1-2.2-0.3-3
			s-0.5-1.5-0.8-2c-0.4-0.5-0.8-0.9-1.3-1.1C118.5,27.4,118,27.3,117.3,27.3z"/>
		<path class="st1" d="M138.8,23.5c1.3,0,2.5,0.2,3.6,0.6c1.1,0.4,2,1,2.8,1.8c0.8,0.8,1.4,1.8,1.8,2.9c0.4,1.2,0.7,2.5,0.7,4
			c0,0.4,0,0.7,0,0.9c0,0.2-0.1,0.4-0.2,0.6c-0.1,0.1-0.2,0.2-0.4,0.3c-0.1,0.1-0.3,0.1-0.6,0.1h-12.7c0.1,2.1,0.7,3.7,1.7,4.6
			c1,1,2.3,1.5,3.9,1.5c0.8,0,1.5-0.1,2.1-0.3s1.1-0.4,1.5-0.6c0.4-0.2,0.8-0.4,1.1-0.6c0.3-0.2,0.6-0.3,1-0.3c0.2,0,0.4,0,0.5,0.1
			s0.3,0.2,0.4,0.3l1.4,1.8c-0.5,0.6-1.2,1.2-1.8,1.6c-0.7,0.4-1.4,0.8-2.1,1c-0.7,0.3-1.5,0.4-2.3,0.5s-1.5,0.2-2.2,0.2
			c-1.4,0-2.8-0.2-4-0.7c-1.2-0.5-2.3-1.2-3.2-2.1c-0.9-0.9-1.6-2.1-2.1-3.4c-0.5-1.4-0.8-3-0.8-4.8c0-1.4,0.2-2.7,0.7-4
			c0.5-1.2,1.1-2.3,2-3.2c0.8-0.9,1.9-1.6,3.1-2.2C135.9,23.7,137.3,23.5,138.8,23.5z M138.9,27c-1.4,0-2.6,0.4-3.4,1.2
			s-1.3,2-1.6,3.5h9.3c0-0.6-0.1-1.2-0.3-1.8c-0.2-0.6-0.4-1.1-0.8-1.5c-0.4-0.4-0.8-0.8-1.4-1C140.3,27.1,139.6,27,138.9,27z"/>
		<path class="st1" d="M166.1,28.1c-0.1,0.2-0.3,0.3-0.4,0.4c-0.1,0.1-0.3,0.2-0.6,0.2c-0.3,0-0.5-0.1-0.7-0.2
			c-0.2-0.2-0.5-0.3-0.9-0.5c-0.3-0.2-0.7-0.4-1.2-0.5s-1-0.2-1.7-0.2c-0.9,0-1.6,0.2-2.3,0.5c-0.7,0.3-1.2,0.8-1.6,1.4
			c-0.4,0.6-0.8,1.3-1,2.1s-0.3,1.8-0.3,2.8c0,1.1,0.1,2.1,0.4,2.9s0.6,1.6,1,2.1c0.4,0.6,1,1,1.6,1.3c0.6,0.3,1.3,0.5,2.1,0.5
			c0.8,0,1.4-0.1,1.9-0.3s0.9-0.4,1.2-0.6c0.3-0.2,0.6-0.4,0.9-0.6c0.2-0.2,0.5-0.3,0.8-0.3c0.4,0,0.7,0.2,0.9,0.5l1.4,1.8
			c-0.5,0.6-1.1,1.2-1.8,1.6c-0.6,0.4-1.3,0.8-2,1c-0.7,0.3-1.4,0.4-2.1,0.5c-0.7,0.1-1.5,0.2-2.2,0.2c-1.3,0-2.5-0.2-3.6-0.7
			c-1.1-0.5-2.1-1.2-2.9-2.1c-0.8-0.9-1.5-2-2-3.3c-0.5-1.3-0.7-2.8-0.7-4.5c0-1.5,0.2-2.9,0.7-4.2c0.4-1.3,1.1-2.4,1.9-3.3
			c0.8-0.9,1.9-1.7,3.1-2.2c1.2-0.5,2.7-0.8,4.3-0.8c1.5,0,2.9,0.2,4,0.7s2.2,1.2,3.1,2.1L166.1,28.1z"/>
		<path class="st1" d="M176.8,17.8c0,0.4-0.1,0.8-0.3,1.2c-0.2,0.4-0.4,0.7-0.7,1c-0.3,0.3-0.6,0.5-1,0.7c-0.4,0.2-0.8,0.2-1.2,0.2
			c-0.4,0-0.8-0.1-1.2-0.2c-0.4-0.2-0.7-0.4-1-0.7c-0.3-0.3-0.5-0.6-0.7-1c-0.2-0.4-0.2-0.8-0.2-1.2c0-0.4,0.1-0.9,0.2-1.2
			c0.2-0.4,0.4-0.7,0.7-1c0.3-0.3,0.6-0.5,1-0.7c0.4-0.2,0.8-0.2,1.2-0.2c0.4,0,0.9,0.1,1.2,0.2c0.4,0.2,0.7,0.4,1,0.7
			c0.3,0.3,0.5,0.6,0.7,1C176.7,16.9,176.8,17.4,176.8,17.8z M176,23.8v20.5h-4.9V23.8H176z"/>
		<path class="st1" d="M190.1,23.5c1.3,0,2.5,0.2,3.6,0.6c1.1,0.4,2,1,2.8,1.8c0.8,0.8,1.4,1.8,1.8,2.9c0.4,1.2,0.7,2.5,0.7,4
			c0,0.4,0,0.7,0,0.9c0,0.2-0.1,0.4-0.2,0.6c-0.1,0.1-0.2,0.2-0.4,0.3c-0.1,0.1-0.3,0.1-0.6,0.1h-12.7c0.1,2.1,0.7,3.7,1.7,4.6
			c1,1,2.3,1.5,3.9,1.5c0.8,0,1.5-0.1,2.1-0.3s1.1-0.4,1.5-0.6c0.4-0.2,0.8-0.4,1.1-0.6c0.3-0.2,0.6-0.3,1-0.3c0.2,0,0.4,0,0.5,0.1
			s0.3,0.2,0.4,0.3l1.4,1.8c-0.5,0.6-1.2,1.2-1.8,1.6c-0.7,0.4-1.4,0.8-2.1,1c-0.7,0.3-1.5,0.4-2.3,0.5s-1.5,0.2-2.2,0.2
			c-1.4,0-2.8-0.2-4-0.7c-1.2-0.5-2.3-1.2-3.2-2.1c-0.9-0.9-1.6-2.1-2.1-3.4c-0.5-1.4-0.8-3-0.8-4.8c0-1.4,0.2-2.7,0.7-4
			c0.5-1.2,1.1-2.3,2-3.2c0.8-0.9,1.9-1.6,3.1-2.2S188.6,23.5,190.1,23.5z M190.2,27c-1.4,0-2.6,0.4-3.4,1.2s-1.3,2-1.6,3.5h9.3
			c0-0.6-0.1-1.2-0.3-1.8c-0.2-0.6-0.4-1.1-0.8-1.5c-0.4-0.4-0.8-0.8-1.4-1C191.6,27.1,190.9,27,190.2,27z"/>
		<path class="st1" d="M215.2,27.8c-0.1,0.2-0.3,0.4-0.4,0.4c-0.1,0.1-0.3,0.1-0.6,0.1c-0.2,0-0.5-0.1-0.8-0.2
			c-0.3-0.1-0.6-0.3-0.9-0.5c-0.4-0.2-0.8-0.3-1.2-0.5c-0.5-0.1-1-0.2-1.6-0.2c-1,0-1.7,0.2-2.3,0.6c-0.6,0.4-0.8,1-0.8,1.6
			c0,0.4,0.1,0.8,0.4,1.1c0.3,0.3,0.7,0.6,1.1,0.8c0.5,0.2,1,0.4,1.6,0.6c0.6,0.2,1.2,0.4,1.8,0.6c0.6,0.2,1.2,0.5,1.8,0.7
			c0.6,0.3,1.1,0.6,1.6,1c0.5,0.4,0.9,0.9,1.1,1.5c0.3,0.6,0.4,1.3,0.4,2.1c0,1-0.2,1.9-0.5,2.7c-0.4,0.8-0.9,1.6-1.6,2.2
			c-0.7,0.6-1.5,1.1-2.6,1.4c-1,0.3-2.2,0.5-3.5,0.5c-0.7,0-1.4-0.1-2.1-0.2s-1.3-0.3-1.9-0.5c-0.6-0.2-1.2-0.5-1.7-0.8
			s-1-0.6-1.4-1l1.1-1.9c0.1-0.2,0.3-0.4,0.5-0.5c0.2-0.1,0.5-0.2,0.8-0.2s0.6,0.1,0.9,0.3c0.3,0.2,0.6,0.4,1,0.6
			c0.4,0.2,0.8,0.4,1.3,0.6c0.5,0.2,1.1,0.3,1.9,0.3c0.6,0,1.1-0.1,1.5-0.2c0.4-0.1,0.8-0.3,1-0.6c0.3-0.2,0.5-0.5,0.6-0.8
			c0.1-0.3,0.2-0.6,0.2-0.9c0-0.5-0.1-0.9-0.4-1.2c-0.3-0.3-0.7-0.6-1.1-0.8s-1-0.4-1.6-0.6s-1.2-0.4-1.9-0.6
			c-0.6-0.2-1.3-0.5-1.9-0.8c-0.6-0.3-1.1-0.7-1.6-1.1c-0.5-0.4-0.9-1-1.1-1.6c-0.3-0.6-0.4-1.4-0.4-2.3c0-0.8,0.2-1.6,0.5-2.4
			c0.3-0.8,0.8-1.4,1.5-2c0.6-0.6,1.5-1,2.4-1.4c1-0.3,2.1-0.5,3.3-0.5c1.4,0,2.7,0.2,3.9,0.7s2.1,1.1,2.9,1.8L215.2,27.8z"/>
		<path class="st1" d="M229.1,44.3V27.5l-1.8-0.3c-0.4-0.1-0.7-0.2-0.9-0.4c-0.2-0.2-0.4-0.5-0.4-0.8v-2h3.1v-0.7
			c0-1.3,0.2-2.4,0.6-3.5c0.4-1.1,1-2,1.9-2.8c0.8-0.8,1.9-1.4,3.2-1.8s2.8-0.7,4.5-0.7c0.6,0,1.1,0,1.7,0.1s1.1,0.2,1.5,0.3
			l-0.2,2.6c0,0.3-0.2,0.5-0.5,0.6c-0.3,0.1-0.7,0.1-1.1,0.1c-1.3,0-2.4,0.1-3.2,0.3c-0.9,0.2-1.6,0.6-2.1,1c-0.5,0.4-0.9,1-1.2,1.7
			c-0.2,0.7-0.4,1.5-0.4,2.4V24h12.7v20.3h-4.9V27.5H234v16.8H229.1z"/>
		<path class="st1" d="M257.5,14.6v29.7h-4.9V14.6H257.5z"/>
		<path class="st1" d="M271.6,23.5c1.3,0,2.5,0.2,3.6,0.6s2,1,2.8,1.8c0.8,0.8,1.4,1.8,1.8,2.9c0.4,1.2,0.7,2.5,0.7,4
			c0,0.4,0,0.7,0,0.9c0,0.2-0.1,0.4-0.2,0.6c-0.1,0.1-0.2,0.2-0.3,0.3c-0.1,0.1-0.3,0.1-0.6,0.1h-12.7c0.1,2.1,0.7,3.7,1.7,4.6
			c1,1,2.3,1.5,3.9,1.5c0.8,0,1.5-0.1,2.1-0.3s1.1-0.4,1.5-0.6s0.8-0.4,1.1-0.6c0.3-0.2,0.6-0.3,1-0.3c0.2,0,0.4,0,0.5,0.1
			c0.1,0.1,0.3,0.2,0.4,0.3l1.4,1.8c-0.5,0.6-1.2,1.2-1.8,1.6c-0.7,0.4-1.4,0.8-2.1,1s-1.5,0.4-2.3,0.5s-1.5,0.2-2.2,0.2
			c-1.4,0-2.8-0.2-4-0.7c-1.2-0.5-2.3-1.2-3.2-2.1c-0.9-0.9-1.6-2.1-2.1-3.4c-0.5-1.4-0.8-3-0.8-4.8c0-1.4,0.2-2.7,0.7-4
			c0.5-1.2,1.1-2.3,2-3.2s1.9-1.6,3.1-2.2C268.7,23.7,270,23.5,271.6,23.5z M271.7,27c-1.4,0-2.6,0.4-3.4,1.2s-1.3,2-1.6,3.5h9.3
			c0-0.6-0.1-1.2-0.3-1.8c-0.2-0.6-0.4-1.1-0.8-1.5c-0.4-0.4-0.8-0.8-1.4-1C273,27.1,272.4,27,271.7,27z"/>
	</g>
	<g class="st0">
		<path class="st1" d="M97.3,68.1c0.5,0,0.9,0,1.3-0.1c0.4,0,0.8-0.1,1.1-0.2c0.3-0.1,0.7-0.2,1-0.3c0.3-0.1,0.6-0.3,0.9-0.4v-3.8
			h-2.7c-0.2,0-0.3,0-0.4-0.1s-0.1-0.2-0.1-0.3v-1.3h5.3v6.6c-0.4,0.3-0.9,0.6-1.4,0.8c-0.5,0.2-1,0.4-1.5,0.6
			c-0.5,0.2-1.1,0.3-1.7,0.3s-1.3,0.1-2,0.1c-1.2,0-2.4-0.2-3.4-0.6s-1.9-1-2.7-1.8c-0.8-0.8-1.3-1.7-1.8-2.8s-0.6-2.3-0.6-3.6
			c0-1.3,0.2-2.5,0.6-3.6c0.4-1.1,1-2,1.8-2.8s1.7-1.4,2.8-1.8s2.3-0.6,3.6-0.6c0.7,0,1.3,0,1.9,0.1c0.6,0.1,1.1,0.2,1.6,0.4
			c0.5,0.2,1,0.4,1.4,0.7c0.4,0.3,0.8,0.6,1.2,0.9l-0.7,1.1c-0.1,0.2-0.3,0.3-0.5,0.3c-0.1,0-0.3,0-0.4-0.1
			c-0.2-0.1-0.4-0.2-0.7-0.4s-0.5-0.3-0.9-0.5s-0.8-0.3-1.3-0.4c-0.5-0.1-1.1-0.2-1.7-0.2c-1,0-1.8,0.2-2.6,0.5
			c-0.8,0.3-1.5,0.8-2,1.4c-0.6,0.6-1,1.3-1.3,2.1S91,60.1,91,61.2c0,1.1,0.2,2.1,0.5,2.9s0.7,1.6,1.3,2.2c0.6,0.6,1.2,1,2,1.4
			C95.6,67.9,96.4,68.1,97.3,68.1z"/>
	</g>
	<g class="st0">
		<path class="st1" d="M111.1,62.6v7.2h-2.3V52.6h4.9c1.1,0,2,0.1,2.8,0.3s1.4,0.5,2,1c0.5,0.4,0.9,0.9,1.1,1.5
			c0.2,0.6,0.4,1.2,0.4,2c0,0.6-0.1,1.2-0.3,1.7c-0.2,0.5-0.5,1-0.8,1.4c-0.4,0.4-0.8,0.8-1.3,1.1c-0.5,0.3-1.1,0.5-1.8,0.7
			c0.3,0.2,0.5,0.4,0.8,0.7l5,6.8h-2.1c-0.4,0-0.7-0.2-0.9-0.5l-4.5-6.1c-0.1-0.2-0.3-0.3-0.4-0.4s-0.4-0.1-0.7-0.1H111.1z
			 M111.1,60.9h2.4c0.7,0,1.3-0.1,1.8-0.2s0.9-0.4,1.3-0.7c0.3-0.3,0.6-0.7,0.8-1.1c0.2-0.4,0.3-0.9,0.3-1.4c0-1-0.3-1.8-1-2.3
			c-0.7-0.5-1.7-0.8-3-0.8h-2.5V60.9z"/>
	</g>
	<g class="st0">
		<path class="st1" d="M140.6,61.2c0,1.3-0.2,2.5-0.6,3.5s-1,2-1.7,2.8c-0.7,0.8-1.6,1.4-2.7,1.8s-2.2,0.6-3.5,0.6s-2.4-0.2-3.5-0.6
			s-1.9-1-2.7-1.8s-1.3-1.7-1.7-2.8c-0.4-1.1-0.6-2.3-0.6-3.5c0-1.3,0.2-2.5,0.6-3.5c0.4-1.1,1-2,1.7-2.8c0.7-0.8,1.6-1.4,2.7-1.8
			c1-0.4,2.2-0.6,3.5-0.6s2.4,0.2,3.5,0.6c1,0.4,1.9,1,2.7,1.8c0.7,0.8,1.3,1.7,1.7,2.8S140.6,59.9,140.6,61.2z M138.2,61.2
			c0-1.1-0.1-2-0.4-2.8s-0.7-1.6-1.2-2.1c-0.5-0.6-1.2-1-1.9-1.3c-0.8-0.3-1.6-0.5-2.5-0.5c-0.9,0-1.8,0.2-2.5,0.5
			c-0.8,0.3-1.4,0.8-1.9,1.3c-0.5,0.6-0.9,1.3-1.2,2.1s-0.4,1.8-0.4,2.8s0.1,2,0.4,2.8s0.7,1.5,1.2,2.1c0.5,0.6,1.2,1,1.9,1.3
			c0.8,0.3,1.6,0.5,2.5,0.5c0.9,0,1.8-0.2,2.5-0.5c0.8-0.3,1.4-0.8,1.9-1.3c0.5-0.6,0.9-1.3,1.2-2.1S138.2,62.2,138.2,61.2z"/>
		<path class="st1" d="M151.6,67.9c0.7,0,1.3-0.1,1.9-0.4c0.6-0.2,1-0.6,1.4-1c0.4-0.4,0.7-0.9,0.9-1.5s0.3-1.3,0.3-2V52.6h2.3V63
			c0,1-0.2,1.9-0.5,2.8c-0.3,0.8-0.8,1.6-1.4,2.2c-0.6,0.6-1.3,1.1-2.2,1.5c-0.8,0.4-1.8,0.5-2.9,0.5c-1.1,0-2-0.2-2.9-0.5
			c-0.8-0.4-1.6-0.8-2.2-1.5c-0.6-0.6-1-1.4-1.4-2.2c-0.3-0.8-0.5-1.8-0.5-2.8V52.6h2.3V63c0,0.7,0.1,1.4,0.3,2s0.5,1.1,0.9,1.5
			c0.4,0.4,0.9,0.8,1.4,1C150.3,67.8,150.9,67.9,151.6,67.9z"/>
		<path class="st1" d="M166.2,63.3v6.4h-2.3V52.6h5.1c1.1,0,2,0.1,2.8,0.4c0.8,0.3,1.5,0.6,2,1.1c0.5,0.5,0.9,1,1.2,1.7
			c0.3,0.7,0.4,1.4,0.4,2.2c0,0.8-0.1,1.5-0.4,2.2s-0.7,1.2-1.2,1.7s-1.2,0.9-2,1.1c-0.8,0.3-1.7,0.4-2.7,0.4H166.2z M166.2,61.5
			h2.8c0.7,0,1.2-0.1,1.8-0.3c0.5-0.2,0.9-0.4,1.3-0.7s0.6-0.7,0.8-1.1c0.2-0.4,0.3-0.9,0.3-1.5c0-1.1-0.3-2-1-2.6s-1.7-0.9-3.1-0.9
			h-2.8V61.5z"/>
	</g>
	<g>
		<g>
			<path class="st2" d="M51.6,38.7c-1.6-5.8-5-11-9.6-14.7c-0.1-0.1-0.2-0.2-0.3-0.3c-2.8-2.2-6-4-9.4-5.1c-0.7-0.2-1.2-0.3-1.8-0.5
				c-1.2-0.4-2.5-0.9-3.6-1.5c-0.1,0-0.2-0.1-0.3-0.1c-0.2-0.1-0.5-0.2-0.7-0.4c-0.1-0.1-0.3-0.1-0.4-0.2c-0.1,0-0.2-0.1-0.2-0.1
				c-0.2-0.1-0.3-0.2-0.5-0.3c-0.4-0.2-0.8-0.5-1.2-0.8c0,0,0,0,0,0c-0.1-0.1-0.3-0.2-0.4-0.3c0,0,0,0-0.1,0s0,0-0.1,0c0,0,0,0,0,0
				c-0.2-0.1-0.3-0.2-0.5-0.4c-0.1-0.1-0.3-0.2-0.5-0.3c-0.1-0.1-0.2-0.2-0.3-0.3c-0.2-0.2-0.4-0.3-0.6-0.5
				c-0.1-0.1-0.2-0.2-0.4-0.3c0,0-0.1-0.1-0.1-0.1c-0.1-0.1-0.2-0.2-0.3-0.3c-0.2-0.1-0.3-0.3-0.5-0.4c-0.4-0.4-0.8-0.7-1.1-1.1
				c-0.1-0.1-0.2-0.2-0.3-0.3c-0.2-0.2-0.4-0.4-0.6-0.7c-0.1-0.1-0.2-0.3-0.3-0.4c-0.1-0.1-0.1-0.2-0.2-0.3
				c-0.1-0.1-0.2-0.3-0.4-0.5c-0.1-0.1-0.2-0.3-0.4-0.5c-0.3-0.4-0.6-0.8-0.9-1.2c0,0-0.1-0.1-0.1-0.1c-0.2-0.3-0.4-0.6-0.6-0.9
				c0,0,0-0.1-0.1-0.1c-0.1-0.2-0.2-0.4-0.4-0.6c-0.1-0.2-0.2-0.4-0.3-0.6c-0.2-0.4-0.5-0.9-0.7-1.3c-0.1-0.2-0.2-0.4-0.2-0.5
				c-0.1-0.2-0.2-0.5-0.3-0.7s-0.2-0.5-0.3-0.7c-0.1-0.2-0.2-0.4-0.3-0.7C12.2,0.5,12.1,0.2,12,0c0,0,0,0,0,0
				c0.7,13.5,4.9,26,11.7,36.7c1.6-4.5,2.7-9.2,3.4-14c0.5,3.5,0.8,7.1,0.8,10.8c0,2.9-0.2,5.7-0.5,8.5c2.9,3.7,6.1,7.2,9.6,10.3
				c2.5-6.2,4.2-12.8,4.9-19.8c0.1,0.9,0.2,1.8,0.2,2.7l0.1,2.2c0,1.1,0.1,2.1,0.1,3.2c0,5.1-0.5,10.1-1.5,14.9c2.6,2,5.2,3.8,8,5.5
				c1.4-2.4,2.4-5.1,3-7.9c0-0.2,0.1-0.4,0.1-0.6c0-0.2,0.1-0.3,0.1-0.5c0-0.1,0-0.2,0.1-0.3c0-0.1,0-0.2,0.1-0.3
				c0-0.2,0-0.3,0.1-0.5c0-0.3,0.1-0.7,0.1-1c0-0.3,0-0.5,0.1-0.8c0-0.2,0-0.5,0-0.8c0-0.3,0-0.5,0-0.8c0-0.3,0-0.5,0-0.8v0
				C52.7,43.9,52.3,41.2,51.6,38.7L51.6,38.7z"/>
			<g>
				<path class="st2" d="M4.5,44.6c0,1.1,0.9,1.9,1.9,1.9s1.9-0.9,1.9-1.9s-0.9-1.9-1.9-1.9S4.5,43.5,4.5,44.6z"/>
				<path class="st2" d="M6.3,32.1c0,1.1,0.9,1.9,1.9,1.9s1.9-0.9,1.9-1.9s-0.9-1.9-1.9-1.9S6.3,31,6.3,32.1z"/>
				<path class="st2" d="M21.8,60.2l-7.2-2c-0.6,1-1.7,1.7-3,1.7c-2,0-3.5-1.6-3.5-3.5s1.6-3.5,3.5-3.5c1.8,0,3.2,1.3,3.5,3l16,4.5
					c-3.3-2.7-7.2-5.9-10.2-8.8c-1,0.1-1.9,0.2-2.7,0.2c-4.4,0-6.8-1.8-9.2-3.6c-0.2-0.2-0.4-0.3-0.6-0.4c-0.6,0.4-1.3,0.6-2,0.6
					c-2,0-3.5-1.6-3.5-3.5s1.6-3.5,3.5-3.5s3.5,1.6,3.5,3.5c0,0.3-0.1,0.6-0.1,0.9c0.2,0.2,0.4,0.3,0.7,0.5c2.4,1.8,4.3,3.3,8.3,3.1
					c-4.4-4.6-6.1-7.3-8.4-11c-0.4-0.7-0.9-1.5-1.4-2.3l-0.1-0.2c-0.2,0-0.4,0-0.6,0c-2,0-3.5-1.6-3.5-3.5s1.6-3.5,3.5-3.5
					s3.5,1.6,3.5,3.5c0,0.9-0.3,1.7-0.9,2.3l0.1,0.1c0.5,0.8,1,1.6,1.5,2.3c2.5,4,4.2,6.7,9.2,11.9c3.1,3.2,7.7,7,11.4,10
					c-0.2-0.2-0.3-0.3-0.3-0.3c-0.1-0.1-0.2-0.2-0.3-0.2c-0.2-0.2-0.4-0.4-0.6-0.6c-0.2-0.2-0.4-0.3-0.5-0.5s-0.4-0.4-0.5-0.5
					c-0.1-0.1-0.1-0.2-0.2-0.2c-0.2-0.2-0.4-0.4-0.6-0.7c-0.3-0.3-0.5-0.6-0.8-0.9c-0.3-0.3-0.5-0.6-0.8-0.9
					c-0.1-0.1-0.2-0.2-0.3-0.3l0,0c-0.2-0.2-0.4-0.4-0.5-0.6c-0.2-0.3-0.4-0.5-0.6-0.8l-0.5-0.6c-0.2-0.2-0.4-0.5-0.6-0.7
					c-0.2-0.2-0.4-0.5-0.6-0.7c-0.2-0.2-0.6-0.7-0.6-0.7l-1.9-2.6c0,0-0.6-0.9-0.9-1.4c-0.4-0.5-0.7-1.1-1.1-1.7
					c-0.1-0.2-0.3-0.4-0.4-0.7c-0.3-0.5-0.6-1-0.8-1.4c-0.1-0.3-0.3-0.5-0.4-0.8c-0.3-0.6-0.6-1.2-0.9-1.7c-0.1-0.3-0.3-0.5-0.4-0.8
					c-0.1-0.3-0.3-0.5-0.4-0.8s-0.3-0.5-0.4-0.8c-0.1-0.2-0.2-0.4-0.3-0.6c-0.1-0.3-0.2-0.5-0.4-0.8c-0.1-0.3-0.3-0.6-0.4-1
					c-0.1-0.3-0.3-0.6-0.4-0.9c-0.1-0.3-0.2-0.6-0.4-0.8c-0.1-0.2-0.2-0.5-0.3-0.7c-0.2-0.6-0.5-1.2-0.7-1.9
					c-0.1-0.4-0.2-0.7-0.4-1.1l0,0c-0.1-0.3-0.2-0.6-0.3-0.9c-0.1-0.4-0.3-0.8-0.4-1.2c0-0.1-0.1-0.2-0.1-0.4
					c-0.1-0.3-0.2-0.5-0.2-0.8c-0.1-0.3-0.2-0.6-0.2-0.9c0-0.2-0.1-0.3-0.1-0.5c0,0,0-0.1,0-0.1c0-0.1-0.1-0.3-0.1-0.4
					c-0.1-0.2-0.1-0.5-0.2-0.8c0,0,0-0.1,0-0.1c-0.1-0.3-0.1-0.5-0.2-0.8c-0.1-0.3-0.1-0.6-0.2-1c-0.1-0.3-0.1-0.6-0.2-1
					c-0.1-0.7-0.3-1.4-0.4-2.1c0-0.1,0-0.2-0.1-0.3c0-0.2-0.1-0.4-0.1-0.7c0-0.3-0.1-0.5-0.1-0.8c0-0.3-0.1-0.5-0.1-0.8
					c-0.1-0.4-0.1-0.8-0.2-1.2l0,0c0-0.1,0-0.3-0.1-0.5c0-0.3-0.1-0.6-0.1-0.8c0-0.3-0.1-0.6-0.1-0.9c0-0.2,0-0.4-0.1-0.6
					c0-0.1,0-0.3,0-0.4c0-0.2-0.1-2.2-0.1-2.4c0,5-2,10.2-4.1,14.4C2.2,30-0.2,37.5,0,44.2C0.2,49,3,59.4,12.8,65.9
					C14.2,64.2,17.7,61,21.8,60.2L21.8,60.2z"/>
				<circle class="st2" cx="11.6" cy="56.2" r="1.9"/>
			</g>
			<path class="st1" d="M62.3,76.1L62.3,76.1c-1.6,0-3-0.9-3.8-2.2c-1-1.7-2.4-3.2-4-4.3l0,0c0,0-6.5-4.5-7.3-5
				c-0.1-0.1-0.2-0.1-0.3-0.2c-3-1.8-5.8-3.8-8.5-6c0,0,0,0,0,0l-1.9-1.6c-2.6-2.3-5.1-4.8-7.4-7.5c-0.8-1-1.6-1.9-2.4-2.9
				c-0.5-0.6-0.9-1.2-1.3-1.8L23.6,42c-2.6-4-4.9-8.3-6.7-12.8c-0.9-2.2-1.7-4.5-2.4-6.9c-0.2-0.7-0.4-1.5-0.6-2.2
				c-0.4-1.5-0.7-3-1-4.6c-0.2-1.2-0.5-2.5-0.6-3.8C12,10.5,11.9,9.3,11.7,8c-0.1-0.6-0.1-1.1-0.1-1.7c-0.1-1.6-1.5-3.8-1.6-4l0,0
				l0,0C10,2.3,10,2.2,10,2.1c0,0.1,0,0.3,0,0.3c0,0.9-0.1,1.8-0.1,2.7c0,0.4,0,0.7,0,1.1c0,0.4,0,0.7,0,1.1c0,0.2,0,0.5,0,0.7
				c0,0.2,0,0.4,0,0.6c0,0.1,0,0.3,0,0.4c0,0.3,0,0.7,0.1,1c0,0.1,0,0.1,0,0.2c0,0.2,0,0.4,0,0.6c0,0.1,0,0.3,0,0.4
				c0,0.2,0,0.4,0.1,0.6c0,0.3,0.1,0.6,0.1,0.9c0,0.3,0.1,0.6,0.1,0.8c0,0.1,0,0.3,0.1,0.4l0,0c0.1,0.4,0.1,0.8,0.2,1.2
				c0,0.3,0.1,0.5,0.1,0.8c0,0.3,0.1,0.5,0.1,0.8c0,0.2,0.1,0.6,0.1,0.8c0,0.1,0,0.1,0,0.2c0.1,0.7,0.3,1.4,0.4,2.1
				c0.1,0.3,0.1,0.6,0.2,1c0.1,0.3,0.1,0.6,0.2,1c0.1,0.3,0.1,0.5,0.2,0.8c0,0,0,0.1,0,0.1c0.1,0.3,0.1,0.5,0.2,0.8
				c0,0.1,0.1,0.3,0.1,0.4c0,0,0,0.1,0,0.1c0.1,0.2,0.1,0.3,0.1,0.5c0.1,0.3,0.2,0.6,0.2,0.9c0.1,0.3,0.2,0.5,0.2,0.8
				c0,0.1,0.1,0.2,0.1,0.4c0.1,0.4,0.3,0.8,0.4,1.2c0.1,0.3,0.2,0.6,0.3,0.9l0,0c0.1,0.4,0.2,0.7,0.4,1.1c0.2,0.6,0.5,1.2,0.7,1.9
				c0.1,0.2,0.2,0.5,0.3,0.7c0.1,0.3,0.2,0.6,0.4,0.8c0.1,0.3,0.3,0.6,0.4,0.9c0.1,0.3,0.3,0.6,0.4,1c0.1,0.3,0.2,0.5,0.4,0.8
				c0.1,0.2,0.2,0.4,0.3,0.6c0.1,0.3,0.3,0.5,0.4,0.8c0.1,0.3,0.3,0.5,0.4,0.8c0.1,0.3,0.3,0.5,0.4,0.8c0.3,0.6,0.6,1.2,0.9,1.7
				c0.1,0.3,0.3,0.5,0.4,0.8c0.3,0.5,0.6,1,0.8,1.4c0.1,0.2,0.3,0.5,0.4,0.7c0.4,0.6,0.7,1.1,1.1,1.7c0.3,0.5,0.9,1.4,0.9,1.4
				l1.9,2.6c0,0,0.4,0.5,0.6,0.7s0.4,0.5,0.6,0.7c0.2,0.2,0.4,0.5,0.6,0.7l0.5,0.6c0.2,0.3,0.4,0.5,0.6,0.8c0.2,0.2,0.4,0.4,0.5,0.6
				c0,0,0,0,0,0c0.1,0.1,0.2,0.2,0.3,0.3c0.3,0.3,0.5,0.6,0.8,0.9c0.3,0.3,0.5,0.6,0.8,0.9c0.2,0.2,0.4,0.4,0.6,0.7
				c0.1,0.1,0.1,0.2,0.2,0.2c0.2,0.2,0.4,0.4,0.5,0.5s0.4,0.4,0.5,0.5c0.2,0.2,0.4,0.4,0.6,0.6c0.1,0.1,0.2,0.2,0.3,0.2
				c-0.1,0,1.7,1.6,1.8,1.6c0.3,0.3,0.7,0.6,1,0.9c0.3,0.3,0.7,0.6,1,0.8c0.1,0.1,0.3,0.2,0.4,0.3c0.2,0.1,0.3,0.2,0.5,0.4
				c0.3,0.2,0.6,0.5,0.8,0.7c0.2,0.1,0.3,0.2,0.5,0.4c0.3,0.2,0.6,0.5,1,0.7c0.2,0.1,0.3,0.2,0.5,0.4c0.3,0.2,0.6,0.4,0.9,0.6
				c0.2,0.2,0.4,0.3,0.7,0.4c0,0,0.1,0.1,0.1,0.1c0.2,0.2,0.5,0.3,0.7,0.5c0.1,0.1,0.2,0.1,0.2,0.2c0,0,0.1,0.1,0.1,0.1l-13-3.9
				c-5.4-1.6-11.3,0.2-14.9,4.5l-3.3,4.1c-1.9,2.3-2.9,4.6-5.9,5H3.8c-1,0-1.9,0.8-1.9,1.9c0,0.8,0.7,1.5,1.5,1.5h2.7
				c4.2-0.6,6.1-4,8.9-7.2l3.3-3.6c2.7-3,6.8-4,10.6-2.9l10,3.1c-2.4,1.4-4.4,3.5-5.7,6c-0.4,0.8-1.3,1.3-2.2,1.3h-1.2
				c-0.9,0-1.6,0.7-1.6,1.6c0,1,0.8,1.8,1.8,1.8h2.5c1.4,0,2.7-0.8,3.2-2.1c1.6-4.1,5.6-7.1,10.2-7.1c4.2,0,7.9,2.7,9.8,6.2
				c1,1.8,2.8,3,4.9,3H62c1,0,1.8-0.8,1.8-1.8C63.8,76.9,63.1,76.2,62.3,76.1L62.3,76.1z"/>
		</g>
		<path class="st1" d="M39.6,10.8c15.5,6.8,26.1,22.9,25.8,39.8c0,0.9,0,1.8-0.1,2.7c-0.2-0.2-1.6-1.5-2-1.9c-4.5-4.1-6-5.4-6.1-3.3
			c-0.1,5.5-1.7,10.7-4.5,15.1c3.4,2.3,5.6,4.1,8,6.6c1.8,1.9,4.9,2,6.7,0c0,0,0,0,0.1-0.1c0.7-0.8,1.1-1.5,1.4-2.4
			c0.3-1.1,0.6-2.2,0.8-3.2c0.3-1.8,0.3-3.4,0.2-4.5c2.9-7.5,3.6-15.7,2.3-23.6c-0.1-0.6-0.3-1.6-0.4-2.2c-0.1-0.6-0.3-1.5-0.5-2.1
			c-0.2-0.7-0.7-2.4-1-3.1c-0.4-0.9-0.8-2.1-1.2-3c-0.2-0.4-1-2.1-1.1-2.5c-0.4-0.7-0.9-1.7-1.3-2.4c-2-3.4-4.5-6.6-7.3-9.4
			C56.9,8.9,54,6.8,51,4.9c-0.9-0.5-1.9-1-2.8-1.5c-0.7-0.3-2.2-1-2.9-1.3c0.7,0.4,2.2,1.1,2.8,1.5c0.9,0.5,1.8,1.1,2.7,1.7
			c0.7,0.5,2,1.4,2.6,1.9c4.2,3.3,7.7,7.2,10.5,11.7c0.2,0.3,1.1,2,1.3,2.3c0.3,0.7,0.8,1.7,1.2,2.4c0.1,0.2,0.3,0.7,0.4,1
			c0.2,0.7,0.9,2.3,1.1,2.9c0.2,0.7,0.6,1.8,0.8,2.5c0.1,0.4,0.5,2.1,0.6,2.5c1.4,6.6,1.2,13.7-0.6,20.2
			C68.5,34.1,57,17.2,39.6,10.8L39.6,10.8z M64.2,63.9c-2,0.5-4-1.1-3.8-3.2c0.1-1.3,1-2.4,2.2-2.7c2.1-0.5,4,1.1,3.8,3.2
			C66.4,62.5,65.4,63.6,64.2,63.9z"/>
	</g>
</g>
</svg>
